<svg width="24" height="24" viewBox="0 0 24 24" fill="none" xmlns="http://www.w3.org/2000/svg">
<path opacity="0.4" d="M20 8H4C2.89543 8 2 8.89543 2 10V18C2 19.1046 2.89543 20 4 20H20C21.1046 20 22 19.1046 22 18V10C22 8.89543 21.1046 8 20 8Z" fill="#637381"/>
<path d="M20 6H4C2.89543 6 2 6.89543 2 8V10C2 8.89543 2.89543 8 4 8H20C21.1046 8 22 8.89543 22 10V8C22 6.89543 21.1046 6 20 6Z" fill="#637381"/>
<path d="M18 12H16C15.4477 12 15 12.4477 15 13C15 13.5523 15.4477 14 16 14H18C18.5523 14 19 13.5523 19 13C19 12.4477 18.5523 12 18 12Z" fill="#637381"/>
<path d="M7 12C7.55228 12 8 12.4477 8 13C8 13.5523 7.55228 14 7 14C6.44772 14 6 13.5523 6 13C6 12.4477 6.44772 12 7 12Z" fill="#637381"/>
<path d="M10 12C10.5523 12 11 12.4477 11 13C11 13.5523 10.5523 14 10 14C9.44772 14 9 13.5523 9 13C9 12.4477 9.44772 12 10 12Z" fill="#637381"/>
</svg>
