<svg width="24" height="24" viewBox="0 0 24 24" fill="none" xmlns="http://www.w3.org/2000/svg">
<path opacity="0.4" d="M16 8H8C6.89543 8 6 8.89543 6 10V14C6 15.1046 6.89543 16 8 16H16C17.1046 16 18 15.1046 18 14V10C18 8.89543 17.1046 8 16 8Z" fill="#637381"/>
<path d="M8 6C7.44772 6 7 6.44772 7 7V8H8C8.55228 8 9 8.44772 9 9C9 9.55228 8.55228 10 8 10H7V14H8C8.55228 14 9 14.4477 9 15C9 15.5523 8.55228 16 8 16H7V17C7 17.5523 7.44772 18 8 18H16C16.5523 18 17 17.5523 17 17V16H16C15.4477 16 15 15.5523 15 15C15 14.4477 15.4477 14 16 14H17V10H16C15.4477 10 15 9.55228 15 9C15 8.44772 15.4477 8 16 8H17V7C17 6.44772 16.5523 6 16 6H8Z" fill="#637381"/>
<path d="M10 4C10 3.44772 10.4477 3 11 3C11.5523 3 12 3.44772 12 4V6C12 6.55228 11.5523 7 11 7C10.4477 7 10 6.55228 10 6V4Z" fill="#637381"/>
<path d="M13 4C13 3.44772 13.4477 3 14 3C14.5523 3 15 3.44772 15 4V6C15 6.55228 14.5523 7 14 7C13.4477 7 13 6.55228 13 6V4Z" fill="#637381"/>
<path d="M10 18C10 18.5523 10.4477 19 11 19C11.5523 19 12 18.5523 12 18V20C12 20.5523 11.5523 21 11 21C10.4477 21 10 20.5523 10 20V18Z" fill="#637381"/>
<path d="M13 18C13 18.5523 13.4477 19 14 19C14.5523 19 15 18.5523 15 18V20C15 20.5523 14.5523 21 14 21C13.4477 21 13 20.5523 13 20V18Z" fill="#637381"/>
<path d="M4 10C3.44772 10 3 10.4477 3 11C3 11.5523 3.44772 12 4 12H6C6.55228 12 7 11.5523 7 11C7 10.4477 6.55228 10 6 10H4Z" fill="#637381"/>
<path d="M4 13C3.44772 13 3 13.4477 3 14C3 14.5523 3.44772 15 4 15H6C6.55228 15 7 14.5523 7 14C7 13.4477 6.55228 13 6 13H4Z" fill="#637381"/>
<path d="M18 10C18.5523 10 19 10.4477 19 11C19 11.5523 18.5523 12 18 12H20C20.5523 12 21 11.5523 21 11C21 10.4477 20.5523 10 20 10H18Z" fill="#637381"/>
<path d="M18 13C18.5523 13 19 13.4477 19 14C19 14.5523 18.5523 15 18 15H20C20.5523 15 21 14.5523 21 14C21 13.4477 20.5523 13 20 13H18Z" fill="#637381"/>
</svg>
