<svg width="24" height="24" viewBox="0 0 24 24" fill="none" xmlns="http://www.w3.org/2000/svg">
<path opacity="0.4" d="M20 7H4C2.89543 7 2 7.89543 2 9V19C2 20.1046 2.89543 21 4 21H20C21.1046 21 22 20.1046 22 19V9C22 7.89543 21.1046 7 20 7Z" fill="#637381"/>
<path d="M20 5H4C2.89543 5 2 5.89543 2 7V9C2 7.89543 2.89543 7 4 7H20C21.1046 7 22 7.89543 22 9V7C22 5.89543 21.1046 5 20 5Z" fill="#637381"/>
<path d="M8 11C8.55228 11 9 11.4477 9 12C9 12.5523 8.55228 13 8 13C7.44772 13 7 12.5523 7 12C7 11.4477 7.44772 11 8 11Z" fill="#637381"/>
<path d="M12 11C12.5523 11 13 11.4477 13 12C13 12.5523 12.5523 13 12 13C11.4477 13 11 12.5523 11 12C11 11.4477 11.4477 11 12 11Z" fill="#637381"/>
<path d="M16 11C16.5523 11 17 11.4477 17 12C17 12.5523 16.5523 13 16 13C15.4477 13 15 12.5523 15 12C15 11.4477 15.4477 11 16 11Z" fill="#637381"/>
<path d="M6 15H10C10.5523 15 11 15.4477 11 16C11 16.5523 10.5523 17 10 17H6C5.44772 17 5 16.5523 5 16C5 15.4477 5.44772 15 6 15Z" fill="#637381"/>
<path d="M14 15H18C18.5523 15 19 15.4477 19 16C19 16.5523 18.5523 17 18 17H14C13.4477 17 13 16.5523 13 16C13 15.4477 13.4477 15 14 15Z" fill="#637381"/>
</svg>
