<svg width="26" height="20" viewBox="0 0 26 20" fill="none" xmlns="http://www.w3.org/2000/svg">
  <rect width="26" height="20" rx="2" fill="#DE2910"/>
  <g fill="#FFDE00">
    <polygon points="4,3 5.5,6.5 9,6.5 6.25,8.5 7.75,12 4,10 0.25,12 1.75,8.5 -1,6.5 2.5,6.5"/>
    <polygon points="11,2 11.5,3 12.5,3 11.75,3.75 12,4.75 11,4.25 10,4.75 10.25,3.75 9.5,3 10.5,3"/>
    <polygon points="13,4 13.5,5 14.5,5 13.75,5.75 14,6.75 13,6.25 12,6.75 12.25,5.75 11.5,5 12.5,5"/>
    <polygon points="13,7 13.5,8 14.5,8 13.75,8.75 14,9.75 13,9.25 12,9.75 12.25,8.75 11.5,8 12.5,8"/>
    <polygon points="11,9 11.5,10 12.5,10 11.75,10.75 12,11.75 11,11.25 10,11.75 10.25,10.75 9.5,10 10.5,10"/>
  </g>
</svg>
